<svg xmlns="http://www.w3.org/2000/svg" width="12.885" height="20.199" viewBox="0 0 12.885 20.199">
    <path data-name="Path 132592" d="M9.711 20.201a.461.461 0 0 1-.335-.141.461.461 0 0 1-.132-.332v-.6h-5.6v.595a.471.471 0 0 1-.437.482H1.582a.491.491 0 0 1-.492-.47v-.862A2.135 2.135 0 0 1 0 16.985V2.156A2.159 2.159 0 0 1 .615.638 2.152 2.152 0 0 1 2.126.005h8.626a2.145 2.145 0 0 1 2.133 2.141v14.841a2.142 2.142 0 0 1-1.09 1.883v.853a.5.5 0 0 1-.5.482zm-7.67-.967h.618v-.11h-.618zm8.178-.011h.617v-.112h-.617zm-9.267-2.24a1.154 1.154 0 0 0 .946 1.148h.01l.031.1-.025-.1.025-.008h9.019a.128.128 0 0 0 .041-.011l.025-.015.028-.011a1.161 1.161 0 0 0 .857-1.125V6.756H3.66v1.046a1.15 1.15 0 0 1-.548 1.062 1.146 1.146 0 0 1-.6.171 1.136 1.136 0 0 1-.6-.171 1.142 1.142 0 0 1-.549-1.062V6.756h-.41zM2.378 4.604a.18.18 0 0 0-.054.125v3.069a.186.186 0 0 0 .182.153.183.183 0 0 0 .181-.153V4.729a.177.177 0 0 0-.16-.176h-.023a.177.177 0 0 0-.126.048zm.153-1.021a1.155 1.155 0 0 1 1.125 1.146v1.057h8.248V2.152a1.165 1.165 0 0 0-.331-.831 1.146 1.146 0 0 0-.819-.35H2.139A1.174 1.174 0 0 0 .978 2.142v3.644h.4V4.729a1.161 1.161 0 0 1 1.128-1.146zm5.93 2.107a.652.652 0 0 1-.651-.65v-.769a.652.652 0 0 1 .651-.65h2.666a.65.65 0 0 1 .65.65v.753a.663.663 0 0 1-.2.473.647.647 0 0 1-.4.176l-.028.018zm.275-1.092v.112h1.979v-.115z"/>
</svg>
