<svg xmlns="http://www.w3.org/2000/svg" width="21.818" height="20" viewBox="0 0 21.818 20">
  <defs>
    <style>
      .cls-1 {
        fill: #111;
      }
    </style>
  </defs>
  <path id="office-building" class="cls-1" d="M.852,0h13.3A.819.819,0,0,1,15,.781a.819.819,0,0,1-.852.781h-.767V3.125h7.585a.819.819,0,0,1,.852.781V19.219a.819.819,0,0,1-.852.781H2.472a.819.819,0,0,1-.852-.781V1.563H.852A.819.819,0,0,1,0,.781.819.819,0,0,1,.852,0ZM13.381,18.438h6.733V4.688H13.381Zm-6.733,0h1.7V15.391h-1.7Zm-3.324,0H4.943V14.609a.819.819,0,0,1,.852-.781H9.2a.819.819,0,0,1,.852.781v3.828h1.619V1.563H3.324Zm6.605-7.285a.819.819,0,0,0-.852-.781H5.923a.784.784,0,1,0,0,1.563H9.077A.819.819,0,0,0,9.929,11.152Zm0-3.457a.819.819,0,0,0-.852-.781H5.923a.784.784,0,1,0,0,1.563H9.077A.819.819,0,0,0,9.929,7.7Zm0-3.457a.819.819,0,0,0-.852-.781H5.923a.819.819,0,0,0-.852.781.819.819,0,0,0,.852.781H9.077A.819.819,0,0,0,9.929,4.238Zm8.48,2.793a.819.819,0,0,0-.852-.781H15.938a.819.819,0,0,0-.852.781.819.819,0,0,0,.852.781h1.619A.819.819,0,0,0,18.409,7.031Zm0,4.531a.819.819,0,0,0-.852-.781H15.938a.784.784,0,1,0,0,1.563h1.619A.819.819,0,0,0,18.409,11.563Zm0,4.531a.819.819,0,0,0-.852-.781H15.938a.784.784,0,1,0,0,1.563h1.619A.819.819,0,0,0,18.409,16.094Zm0,0"/>
</svg>
