<svg xmlns="http://www.w3.org/2000/svg" width="20.202" height="15.671" viewBox="0 0 20.202 15.671">
    <path data-name="Path 132559" d="M17.186 15.671a1.888 1.888 0 0 1-1.885-1.88v-.771h-10.4v.771a1.888 1.888 0 0 1-1.885 1.88H1.888A1.892 1.892 0 0 1 0 13.791V7.784A2.549 2.549 0 0 1 .9 5.84l.607-.563 1.5-4.05A1.893 1.893 0 0 1 4.772 0h10.929a1.9 1.9 0 0 1 1.765 1.227l1.525 4.106.419.445a2.6 2.6 0 0 1 .795 1.848v6.165a1.892 1.892 0 0 1-1.888 1.88zm-.833-1.88a.837.837 0 0 0 .833.825h1.128a.834.834 0 0 0 .833-.825v-.947a1.928 1.928 0 0 1-.833.177h-1.96zm-15.3 0a.837.837 0 0 0 .833.825h1.128a.837.837 0 0 0 .833-.825v-.771h-1.96a1.938 1.938 0 0 1-.833-.177zm.535-7.153a1.5 1.5 0 0 0-.535 1.146v3.367a.826.826 0 0 0 .825.814H18.32a.826.826 0 0 0 .822-.763V7.625a1.517 1.517 0 0 0-.473-1.1l-.011-.011a.112.112 0 0 1-.019-.019l-.375-.4h-16.1zm15.406-1.595h.765l-1.284-3.456a.833.833 0 0 0-.773-.532H4.77a.818.818 0 0 0-.773.532L2.713 5.043h8.309a3.055 3.055 0 0 1 2.543-2.471 3.156 3.156 0 0 1 .451-.032 3.046 3.046 0 0 1 2.98 2.503zm-4.9 0h3.811a1.988 1.988 0 0 0-1.5-1.41 2.147 2.147 0 0 0-.408-.043 1.987 1.987 0 0 0-1.896 1.453zm2.36 5.84a.53.53 0 0 1-.529-.528V8.134a.529.529 0 0 1 .529-.526h3.2a.528.528 0 0 1 .529.526v2.221a.528.528 0 0 1-.529.528zm.526-1.055h2.151V8.662H14.98zM2.531 10.883a.53.53 0 0 1-.529-.528V8.134a.53.53 0 0 1 .529-.526h3.2a.528.528 0 0 1 .529.526v2.221a.528.528 0 0 1-.529.528zm.526-1.055h2.151V8.662H3.057zm4.909-.121a.53.53 0 0 1-.526-.529.527.527 0 0 1 .526-.526h4.127a.528.528 0 0 1 .529.526.53.53 0 0 1-.529.529z"/>
</svg>
