<svg xmlns="http://www.w3.org/2000/svg" width="16.193" height="20.199" viewBox="0 0 16.193 20.199">
    <path data-name="Path 132595" d="M3.873 20.201a2.684 2.684 0 0 1-2.674-2.669L-.001 2.68A2.682 2.682 0 0 1 .785.789 2.681 2.681 0 0 1 2.676.001h10.723a2.686 2.686 0 0 1 2.674 2.682v.016l-1.025 12.55h.133v-.4h.99v1.188h.022v1.386h-.989v-.4h-.276l-.038.511a2.693 2.693 0 0 1-2.674 2.669zM1.498 1.489a1.659 1.659 0 0 0-.492 1.179L2.19 17.55a1.692 1.692 0 0 0 1.687 1.691h8.31a1.7 1.7 0 0 0 1.691-1.691v-.018l1.184-14.839a1.678 1.678 0 0 0-.477-1.188 1.692 1.692 0 0 0-1.187-.508H2.685a1.671 1.671 0 0 0-1.186.49zm13.39 14.646zm-6.067 1.612-.978-.013a.6.6 0 0 1-.6-.6v-1.125a.606.606 0 0 1-.411-.493v.528l-1.179-.03a2.685 2.685 0 0 1-2.676-2.651L1.79 4.457a2.678 2.678 0 0 1 2.676-2.674h7.126a2.677 2.677 0 0 1 2.677 2.674v.033l-1.2 8.892a2.679 2.679 0 0 1-2.676 2.655h-.6v-.372a.6.6 0 0 1-.377.362v1.117a.6.6 0 0 1-.174.426.589.589 0 0 1-.418.174zm-.584-1h.165v-.7h-.165zm-1.439-5.753 2.107.763v.729h.329a.6.6 0 0 1 .6.6v1.967h.557a1.689 1.689 0 0 0 1.687-1.687v-.03l1.187-8.887a1.688 1.688 0 0 0-1.684-1.663H4.452a1.691 1.691 0 0 0-1.684 1.653l1.184 8.927a1.7 1.7 0 0 0 1.691 1.687h1.182v-1.982a.6.6 0 0 1 .6-.6h.489v-.033l-1.446-.5a.529.529 0 0 1-.528-.528.53.53 0 0 1 .531-.53.513.513 0 0 1 .328.111zm1.021 4.039h1v-1.569h-1z"/>
</svg>
