<svg xmlns="http://www.w3.org/2000/svg" width="21.5" height="21.022" viewBox="0 0 21.5 21.022">
  <defs>
    <style>
      .cls-1 {
        fill-rule: evenodd;
      }
    </style>
  </defs>
  <g id="Icon" transform="translate(-1.25 -1.489)">
    <path id="Path_145558" data-name="Path 145558" class="cls-1" d="M14.75,21.761V3.238a1.749,1.749,0,0,0-2.4-1.624l-8,3.2a1.75,1.75,0,0,0-1.1,1.625V21.761a.75.75,0,0,0,.75.75H14a.75.75,0,0,0,.75-.75ZM13.25,3.238V21.011H4.75V6.439a.25.25,0,0,1,.157-.233l8-3.2a.254.254,0,0,1,.233.025.251.251,0,0,1,.11.207Z"/>
    <path id="Path_145559" data-name="Path 145559" class="cls-1" d="M20.75,21.761v-13A1.751,1.751,0,0,0,19,7.011H14a.75.75,0,0,0-.75.75v14a.75.75,0,0,0,.75.75h6A.75.75,0,0,0,20.75,21.761Zm-1.5-13v12.25h-4.5V8.512H19A.25.25,0,0,1,19.25,8.761Z"/>
    <path id="Path_145560" data-name="Path 145560" class="cls-1" d="M22,21.011H2a.75.75,0,0,0,0,1.5H22a.75.75,0,0,0,0-1.5Z"/>
    <path id="Path_145561" data-name="Path 145561" class="cls-1" d="M7,9.011h4a.75.75,0,0,0,0-1.5H7a.75.75,0,0,0,0,1.5Z"/>
    <path id="Path_145562" data-name="Path 145562" class="cls-1" d="M7,12.511h4a.75.75,0,0,0,0-1.5H7a.75.75,0,0,0,0,1.5Z"/>
    <path id="Path_145563" data-name="Path 145563" class="cls-1" d="M7,16.011h4a.75.75,0,0,0,0-1.5H7a.75.75,0,0,0,0,1.5Z"/>
    <path id="Path_145564" data-name="Path 145564" class="cls-1" d="M7,19.511h4a.75.75,0,0,0,0-1.5H7a.75.75,0,0,0,0,1.5Z"/>
  </g>
</svg>
