<svg xmlns="http://www.w3.org/2000/svg" width="20.201" height="19.574" viewBox="0 0 20.201 19.574">
    <path data-name="Path 132619" d="M.493 19.574H.465a.49.49 0 0 1-.464-.49v-3.083a1.467 1.467 0 0 1 .972-1.381l1.324-5.712a2.691 2.691 0 0 1 2.222-2.595s.007-.013.013-.016L10.183.649a2.177 2.177 0 0 1 1.554-.646 2.182 2.182 0 0 1 1.548.641l4.618 4.62a1.822 1.822 0 0 1 .2 2.329v1.845l1.954 1.96a.488.488 0 0 1 .082.579l-.967 1.8a.482.482 0 0 1-.431.255.473.473 0 0 1-.232-.057.488.488 0 0 1-.237-.293.49.49 0 0 1 .039-.37l.8-1.477-1.7-1.707h-1.572l-1.7 1.707.793 1.477a.49.49 0 0 1-.2.663.5.5 0 0 1-.234.057.482.482 0 0 1-.431-.255l-.97-1.8a.487.487 0 0 1 .084-.574l1.952-1.965v-1.8l-2.868-2.865-4.5 4.5 1.24 5.353a1.464 1.464 0 0 1 .964 1.378v2.6h.337a.492.492 0 0 1 .49.49.492.492 0 0 1-.49.49zm.49-3.577v2.6H9v-2.6a.486.486 0 0 0-.487-.482H1.471a.484.484 0 0 0-.488.486zm1.015-1.465h5.985l-.9-3.87a2.69 2.69 0 0 1-2.1 1 2.688 2.688 0 0 1-2.094-1zm1.276-5.564a1.72 1.72 0 0 0 1.717 1.717 1.719 1.719 0 0 0 1.717-1.717 1.72 1.72 0 0 0-1.717-1.72 1.722 1.722 0 0 0-1.717 1.72zm12.846.176h1.005v-.852a1.841 1.841 0 0 1-1.005 0zM5.82 6.397a2.706 2.706 0 0 1 1.73 1.7l3.763-3.764a2.139 2.139 0 0 1-1.12-.6 2.2 2.2 0 0 1-.6-1.117zm7.473-2.648-.327.326 3.062 3.062a.826.826 0 0 0 .592.245.815.815 0 0 0 .592-.245.829.829 0 0 0 .245-.589.826.826 0 0 0-.245-.592L13.89 2.632a2.186 2.186 0 0 1-.599 1.116zM10.923 1.3l-.033.038a1.186 1.186 0 0 0-.355.854 1.186 1.186 0 0 0 .355.853 1.191 1.191 0 0 0 .854.354 1.2 1.2 0 0 0 .854-.354c.016-.016.031-.028.049-.044a1.207 1.207 0 0 0 .306-.8 1.211 1.211 0 0 0-.357-.862 1.2 1.2 0 0 0-.857-.354 1.208 1.208 0 0 0-.819.316zM7.41 17.332a.407.407 0 0 1-.115-.278.4.4 0 0 1 .115-.275.4.4 0 0 1 .275-.114.4.4 0 0 1 .278.114.4.4 0 0 1 .115.275.407.407 0 0 1-.115.278.4.4 0 0 1-.278.112.4.4 0 0 1-.278-.113zm-3.284.112a.389.389 0 0 1-.391-.391.39.39 0 0 1 .391-.39h1.732a.391.391 0 0 1 .39.39.39.39 0 0 1-.39.391zm-2.1-.112a.4.4 0 0 1-.115-.278.392.392 0 0 1 .115-.275.4.4 0 0 1 .275-.114.4.4 0 0 1 .276.114.392.392 0 0 1 .115.275.4.4 0 0 1-.115.278.4.4 0 0 1-.276.112.394.394 0 0 1-.282-.113zm2.7-8.09a.387.387 0 0 1-.115-.275.393.393 0 0 1 .115-.276.4.4 0 0 1 .275-.114.4.4 0 0 1 .276.114.393.393 0 0 1 .115.276.387.387 0 0 1-.115.275.386.386 0 0 1-.276.114.384.384 0 0 1-.286-.115zM16.35 6.823a.4.4 0 0 1-.115-.275.394.394 0 0 1 .115-.275.39.39 0 0 1 .278-.115.391.391 0 0 1 .276.115.4.4 0 0 1 .115.275.4.4 0 0 1-.115.275.391.391 0 0 1-.276.115.39.39 0 0 1-.289-.116zm-4.875-4.355a.4.4 0 0 1-.115-.275.4.4 0 0 1 .115-.278.4.4 0 0 1 .275-.114.4.4 0 0 1 .278.114.4.4 0 0 1 .115.278.4.4 0 0 1-.115.275.39.39 0 0 1-.278.115.385.385 0 0 1-.286-.116z"/>
</svg>
