<svg xmlns="http://www.w3.org/2000/svg" width="18.471" height="20" viewBox="0 0 18.471 20">
    <path data-name="Path 132579" d="M9.123 20a6.113 6.113 0 0 1-2.031-1.06 4.948 4.948 0 0 1-1.975-4.01v-.01a7.427 7.427 0 0 1 .5-2.25l-2.242 1.017-1.291 4.294-1.384.465-.3-.952.9-.295 1.285-4.241 3.56-1.62a1.24 1.24 0 0 1-.295-1.273L3.2 9.58l-1.861 2.475-.9.457L0 11.641l.713-.38 2.094-2.775 3.043.554a1.442 1.442 0 0 1 .433-1.427l-2.9-.786L1.54 4.615l.76-.622L3.983 5.95l1.983.543a2.276 2.276 0 0 1-.121-.771 3.713 3.713 0 0 1 .046-.571 4.572 4.572 0 0 1-1.131-.435 1.489 1.489 0 0 1-.886-1.284 7.783 7.783 0 0 1 .7-3.166l.072-.151.875.433-.064.142a6.931 6.931 0 0 0-.63 2.743c0 .295.638.611 1.3.77a3.535 3.535 0 0 1 .2-.438 2.379 2.379 0 0 1-.507-1.294v-.012A2.3 2.3 0 0 1 6.949.612 4.189 4.189 0 0 1 8.126.024.447.447 0 0 1 8.272 0a.46.46 0 0 1 .264.082.483.483 0 0 1 .153.668 4.65 4.65 0 0 0-.5 1.39 3.429 3.429 0 0 1 2.127 0A4.476 4.476 0 0 0 9.8.761V.749a.5.5 0 0 1 0-.412.49.49 0 0 1 .46-.323.478.478 0 0 1 .14.024l.02.007a5.105 5.105 0 0 1 1.2.63 2.25 2.25 0 0 1 1.078 1.8v.012a2.383 2.383 0 0 1-.498 1.291 3.943 3.943 0 0 1 .2.438c.659-.159 1.3-.477 1.3-.772A6.821 6.821 0 0 0 13.069.7L13 .561l.875-.433.069.15a7.691 7.691 0 0 1 .711 3.164 1.489 1.489 0 0 1-.889 1.285 4.617 4.617 0 0 1-1.13.435 3.8 3.8 0 0 1 .042.573 2.278 2.278 0 0 1-.121.769l1.982-.543 1.648-1.978.75.616-1.813 2.227-2.905.811a1.442 1.442 0 0 1 .431 1.428l3.043-.554 2.079 2.775.7.353-.446.845-.9-.455L15.2 9.56l-2.653.486a1.24 1.24 0 0 1-.295 1.273l3.56 1.614 1.288 4.235.9.3-.314.951-1.372-.466-1.291-4.293-2.2-1a7.375 7.375 0 0 1 .5 2.25v.006A5.068 5.068 0 0 1 9.319 20H9.3zm.129-.98a4.142 4.142 0 0 0 2.566-1.92 6.9 6.9 0 0 1-2.578.615h-.012a6.757 6.757 0 0 1-2.453-.559 4.9 4.9 0 0 0 2.477 1.862zm-3.061-3.296a5.928 5.928 0 0 0 3.043 1.01 5.874 5.874 0 0 0 3.071-1.02 5.6 5.6 0 0 0 .051-.623h-.024v-.161a6.3 6.3 0 0 1-6.211 0 4.493 4.493 0 0 0 .07.794zm3.043-.955a5.023 5.023 0 0 0 2.966-.912 8.173 8.173 0 0 0-.173-.609 5.373 5.373 0 0 1-2.792.857h-.006a5.368 5.368 0 0 1-2.78-.859c-.068.2-.128.405-.178.611a4.958 4.958 0 0 0 2.96.911zM6.809 12.3a4.489 4.489 0 0 0 2.424.828 4.489 4.489 0 0 0 2.437-.828 14.841 14.841 0 0 0-.26-.569 10.156 10.156 0 0 1-2.159.392h-.022a10.143 10.143 0 0 1-2.159-.392c-.1.208-.187.396-.261.569zm.042-2.053a.264.264 0 0 0-.079.188.275.275 0 0 0 .191.259 9.728 9.728 0 0 0 2.269.462 9.588 9.588 0 0 0 2.268-.462h.005a.269.269 0 0 0 .194-.259.266.266 0 0 0-.079-.187.261.261 0 0 0-.186-.076h-4.4a.26.26 0 0 0-.182.074zm-.033-1.565a.484.484 0 0 0 .484.484h3.927A.483.483 0 0 0 11.2 8.2H7.3a.484.484 0 0 0-.482.482zm-.045-2.945a1.222 1.222 0 0 0 .769 1.186 4.01 4.01 0 0 0 1.691.3 4.029 4.029 0 0 0 1.695-.3 1.221 1.221 0 0 0 .772-1.186 2.643 2.643 0 0 0-2.466-2.789 2.64 2.64 0 0 0-2.461 2.789zm4.576-3c.071.061.14.125.206.191a1.27 1.27 0 0 0 .145-.47 1.525 1.525 0 0 0-.533-.932 6.415 6.415 0 0 1 .182 1.216zM6.787 2.4v.05a1.243 1.243 0 0 0 .144.485 3.12 3.12 0 0 1 .207-.191 6.434 6.434 0 0 1 .175-1.213 1.557 1.557 0 0 0-.526.869z"/>
</svg>
