<svg xmlns="http://www.w3.org/2000/svg" width="20" height="14.116" viewBox="0 0 20 14.116">
    <path data-name="Path 132585" d="M2.041 14.116A2.048 2.048 0 0 1 0 12.071V2.054A2.059 2.059 0 0 1 2.04 0h15.914A2.064 2.064 0 0 1 20 2.05v10.015a2.059 2.059 0 0 1-2.046 2.046H2.823v.005zm11.256-1h4.657a1.057 1.057 0 0 0 1.057-1.055V2.022A1.061 1.061 0 0 0 17.954.965H13.3zM2.042.965A1.071 1.071 0 0 0 .984 2.023v10.042a1.057 1.057 0 0 0 1.057 1.055h10.272V.965H2.041zm15.327 8.746h-.493a.572.572 0 0 1-.574-.569V8.128a.574.574 0 0 1 .573-.566h.986a.574.574 0 0 1 .573.566v1.014a.573.573 0 0 1-.574.569zm0-1.319h-.156a.079.079 0 0 0-.078.078v.33a.078.078 0 0 0 .078.078h.31A.078.078 0 0 0 17.6 8.8v-.33a.079.079 0 0 0-.078-.078h-.156zM15 9.711h-.493a.573.573 0 0 1-.574-.569V8.128a.574.574 0 0 1 .573-.566h.986a.574.574 0 0 1 .573.566v1.014a.573.573 0 0 1-.574.569zm0-1.319h-.156a.079.079 0 0 0-.078.078v.33a.078.078 0 0 0 .078.078h.31a.078.078 0 0 0 .078-.078v-.33a.079.079 0 0 0-.078-.078H15zm2.369-1.034h-.493a.572.572 0 0 1-.574-.569V5.775a.574.574 0 0 1 .573-.566h.986a.574.574 0 0 1 .573.566v1.013a.573.573 0 0 1-.574.569zm0-1.319h-.156a.079.079 0 0 0-.078.078v.33a.078.078 0 0 0 .078.078h.31a.078.078 0 0 0 .078-.078v-.33a.079.079 0 0 0-.078-.078h-.156zM15 7.357h-.493a.573.573 0 0 1-.574-.569V5.775a.574.574 0 0 1 .573-.566h.986a.574.574 0 0 1 .573.566v1.013a.573.573 0 0 1-.574.569zm0-1.319h-.156a.079.079 0 0 0-.078.078v.33a.078.078 0 0 0 .078.078h.31a.078.078 0 0 0 .078-.078v-.33a.079.079 0 0 0-.078-.078H15z"/>
</svg>
