<svg xmlns="http://www.w3.org/2000/svg" width="20.199" height="20.196" viewBox="0 0 20.199 20.196">
    <path data-name="Path 132572" d="M5.904 20.196a2.36 2.36 0 0 1-2.356-2.356v-2.159h-.869a2.039 2.039 0 0 1-2.034-2.034v-.316a1.058 1.058 0 0 1-.644-.977 1.067 1.067 0 0 1 1.066-1.066h1.291a1.067 1.067 0 0 1 1.069 1.066 1.062 1.062 0 0 1-.644.977.224.224 0 0 0 .219.216h.546V11.74a1.393 1.393 0 0 1-.966-1.32A1.389 1.389 0 0 1 3.97 9.032h10.871L6.892 1.083a.432.432 0 0 1-.125-.3.432.432 0 0 1 .125-.3 1.812 1.812 0 0 1 1.336-.484 7.814 7.814 0 0 1 4.394 2.057l.425-.425a1.056 1.056 0 0 1 .235-1.147 1.05 1.05 0 0 1 .755-.313 1.059 1.059 0 0 1 .755.313l1.369 1.369a1.074 1.074 0 0 1 0 1.51 1.071 1.071 0 0 1-.758.311 1.065 1.065 0 0 1-.392-.075l-.428.425c1.561 1.883 2.324 3.85 1.967 5.048a1.392 1.392 0 0 1 1.068 1.348 1.392 1.392 0 0 1-.968 1.32v1.807h.546a.223.223 0 0 0 .222-.216 1.062 1.062 0 0 1-.644-.977 1.067 1.067 0 0 1 1.069-1.066h1.291a1.067 1.067 0 0 1 1.066 1.066 1.057 1.057 0 0 1-.646.977v.316a2.036 2.036 0 0 1-2.032 2.034h-.871v2.159a2.36 2.36 0 0 1-2.356 2.356zm-1.51-2.356a1.512 1.512 0 0 0 1.51 1.512h8.39a1.515 1.515 0 0 0 1.512-1.512v-6.03H4.394zm12.256-3h.871a1.19 1.19 0 0 0 1.188-1.19v-.225h-.449a1.063 1.063 0 0 1-1.063.969h-.546zM1.491 13.65a1.19 1.19 0 0 0 1.188 1.19h.869v-.446h-.546a1.061 1.061 0 0 1-1.061-.969h-.449zm16.127-1.293a.224.224 0 0 0 .225.225h1.291a.222.222 0 0 0 .219-.225.219.219 0 0 0-.219-.22h-1.291a.221.221 0 0 0-.225.216zm-16.773 0a.224.224 0 0 0 .222.225h1.291a.224.224 0 0 0 .225-.225.221.221 0 0 0-.225-.22H1.067a.221.221 0 0 0-.223.216zm2.581-1.935a.544.544 0 0 0 .543.544H16.23a.544.544 0 0 0 .543-.544.546.546 0 0 0-.543-.547H3.969a.546.546 0 0 0-.544.544zM7.874.871l7.9 7.9c.29-1.074-.909-3.363-2.722-5.176-1.6-1.6-3.628-2.771-4.812-2.771a1.394 1.394 0 0 0-.367.044zm5.381 1.748c.154.144.281.266.4.379.132.133.26.265.376.393l.322-.322-.768-.771zm.622-1.534a.215.215 0 0 0-.065.157.213.213 0 0 0 .065.159l1.369 1.369a.226.226 0 0 0 .16.063.247.247 0 0 0 .157-.062.231.231 0 0 0 .063-.159.215.215 0 0 0-.065-.157l-1.366-1.369a.231.231 0 0 0-.157-.064.222.222 0 0 0-.162.06z"/>
    <path data-name="Path 132573" d="m7.501 7.607.62-.619a.545.545 0 0 0 .159-.387.546.546 0 0 0-.159-.385l-.233-.232a1.368 1.368 0 0 1-.4-.974 1.364 1.364 0 0 1 .4-.972l.62-.622.587.587-.62.62a.549.549 0 0 0-.16.387.546.546 0 0 0 .16.387l.233.232a1.368 1.368 0 0 1 .4.972 1.368 1.368 0 0 1-.4.974l-.622.622zm-2.949 0 .62-.619a.544.544 0 0 0 .16-.387.544.544 0 0 0-.16-.385l-.232-.232a1.368 1.368 0 0 1-.4-.974 1.364 1.364 0 0 1 .4-.972l.619-.622.587.587-.62.62a.547.547 0 0 0-.16.387.544.544 0 0 0 .16.387l.233.232a1.37 1.37 0 0 1 .4.972 1.37 1.37 0 0 1-.4.974l-.62.622z"/>
</svg>
