<svg xmlns="http://www.w3.org/2000/svg" width="20.199" height="20.199" viewBox="0 0 20.199 20.199">
    <path data-name="Path 132617" d="M18.164 20.201h-2.036v-6.585a.2.2 0 0 0-.189-.189.2.2 0 0 0-.168.1l-.666 1.166a10.788 10.788 0 0 0-.732 1.564l-.2.527a11.933 11.933 0 0 1-1.212 2.368 2.357 2.357 0 0 1-1.962 1.049H5.618a3.1 3.1 0 0 1-2.462-1.232 1.289 1.289 0 0 1-.255-.766 1.268 1.268 0 0 1 1-1.242 9.015 9.015 0 0 0 2.217-.816l1.607-1.09.327-.288.413-.082-.176.169.082.043a2.586 2.586 0 0 0 1.14.269 2.545 2.545 0 0 0 1.807-.748 11.788 11.788 0 0 0 1.773-2.275l.263-.439.028-.022.923-1.539.005-.033 2.967-4.944h.24a2.23 2.23 0 0 1 1.854 1 4.868 4.868 0 0 1 .827 2.72v.166a4.9 4.9 0 0 1-.521 2.194 13.468 13.468 0 0 0-1.138 3.316l-.021.112a13.2 13.2 0 0 0-.258 2.59v2.944zm-1.421-7.229a1.014 1.014 0 0 1 .232.644v5.74h.444v-2.1a14.267 14.267 0 0 1 .271-2.756l.023-.112a14.129 14.129 0 0 1 1.214-3.528 4.164 4.164 0 0 0 .414-1.492 29.243 29.243 0 0 0-2.599 3.603zM5.619 19.356H11a1.513 1.513 0 0 0 1.258-.671l.125-.191a8.856 8.856 0 0 1-1.61.53 8.912 8.912 0 0 1-1.924.21H5.8v-.845h3.044a8.145 8.145 0 0 0 1.743-.191 7.962 7.962 0 0 0 2.5-1.023c.125-.28.214-.487.289-.687l.2-.53a12.176 12.176 0 0 1 .791-1.687l.671-1.168a1.033 1.033 0 0 1 .9-.519h.051a30.066 30.066 0 0 1 3.294-4.449 4.022 4.022 0 0 0-.612-1.508 1.388 1.388 0 0 0-.924-.6l-3.932 6.549a12.538 12.538 0 0 1-1.9 2.437 3.364 3.364 0 0 1-2.4 1 3.5 3.5 0 0 1-1.283-.25 9.951 9.951 0 0 1-4.144 2.028.426.426 0 0 0-.339.416.417.417 0 0 0 .046.187h1.566v.845h-.459a2.191 2.191 0 0 0 .717.116zm-4.552-3.023a1.068 1.068 0 0 1-1.066-1.069V7.2A7.205 7.205 0 0 1 7.196 0a7.206 7.206 0 0 1 7.2 7.2v1.914l-.845 1.217-.538.775-3.778.944v.638a1.069 1.069 0 0 1-1.067 1.066H6.232a1.07 1.07 0 0 1-1.069-1.066v-.638L.849 10.971v4.3a.224.224 0 0 0 .222.225h5.276l-1.237.845zm4.937-3.648a.224.224 0 0 0 .225.222h1.936a.222.222 0 0 0 .222-.222v-.867H6zm3.228-3v1.5l4.316-1.079v-2.15H.848v2.15l4.314 1.079v-1.5zm-3.228 1.291h2.383v-.446H6zm7.1-3.873h.444a6.306 6.306 0 0 0-1.86-4.388A6.308 6.308 0 0 0 7.198.852a6.358 6.358 0 0 0-6.35 6.251h.446a5.912 5.912 0 0 1 5.9-5.807A5.913 5.913 0 0 1 13.1 7.101zm-10.968 0H12.26a5.03 5.03 0 0 0-1.485-3.475 5.02 5.02 0 0 0-3.577-1.485 5.067 5.067 0 0 0-5.065 4.958z"/>
</svg>
