<svg xmlns="http://www.w3.org/2000/svg" width="20" height="19.972" viewBox="0 0 20 19.972">
    <path data-name="Path 132580" d="m16.269 19.863-.6-.52a.45.45 0 0 1-.147-.265l-.863-5.351-2.593-1.476a21.185 21.185 0 0 1-.627 4.165v.009a.448.448 0 0 1-.428.313.456.456 0 0 1-.129-.019.444.444 0 0 1-.3-.552q.042-.144.077-.278H9.35a3.824 3.824 0 0 0 .665 1.554 1.117 1.117 0 0 0 .17-.236.45.45 0 1 1 .782.436 1.188 1.188 0 0 1-.963.706c-.7 0-1.213-.845-1.613-2.66a23.111 23.111 0 0 1-.443-3.545l-2.592 1.544-.869 5.35a.437.437 0 0 1-.139.265l-.593.517a.444.444 0 0 1-.618 0 .443.443 0 0 1 0-.631l.007-.006.471-.412.872-5.407a.44.44 0 0 1 .217-.315l3.191-1.9v-.969l-3.824.314-1.787 3.941a.44.44 0 0 1-.163.261l-.014.011-.787.364a.445.445 0 0 1-.585-.232.445.445 0 0 1 .227-.584l.58-.284 1.833-4.047a.46.46 0 0 1 .37-.264l4.173-.343V9.3a23.787 23.787 0 0 1-3.989-.536.448.448 0 1 1 .2-.873 25.678 25.678 0 0 0 4.725.491.184.184 0 0 0 .095-.337l-.626-.313-6.807-3.375a.424.424 0 0 0-.45.037.42.42 0 0 0-.155.421v.022a3.143 3.143 0 0 0 1.694 2.55l.062.027c.111.048.225.1.345.137h.012l.011.006a.45.45 0 0 1-.208.849.462.462 0 0 1-.127-.014l-.017-.006-.475-.2a4.1 4.1 0 0 1-2.2-3.22A1.312 1.312 0 0 1 1.905 3.6l6.027 2.99-1.853-1.275a.445.445 0 0 1-.179-.471l.732-3.182-.242-.207a.446.446 0 0 1-.003-.616.443.443 0 0 1 .626-.054l.443.378a.458.458 0 0 1 .136.437L6.83 4.791l1.47.979a1.786 1.786 0 0 1-.064-.8 1.307 1.307 0 0 1-.616-1.1 1.293 1.293 0 0 1 1.959-1.111V.444A.45.45 0 0 1 9.99 0H10a.444.444 0 0 1 .444.444v2.305a1.293 1.293 0 1 1 1.327 2.22 1.759 1.759 0 0 1-.074.741l1.463-.975-.76-3.19a.449.449 0 0 1 .15-.445l.43-.37a.443.443 0 0 1 .633.058.453.453 0 0 1-.059.626l-.23.2.77 3.221a.445.445 0 0 1-.186.472l-1.873 1.29 4.4-2.163h.043a.441.441 0 0 1 .125-.018.45.45 0 0 1 .191.858l-5.069 2.5-.633.317a.179.179 0 0 0-.1.165v.007a.177.177 0 0 0 .177.181h.479A16.027 16.027 0 0 0 17.426 7.4a3.15 3.15 0 0 0 1.7-2.55v-.012a.425.425 0 0 0-.167-.4.414.414 0 0 0-.459-.038h-.006l-.667.334h-.047a.444.444 0 0 1-.125.018.45.45 0 0 1-.191-.857l.632-.316a1.328 1.328 0 0 1 .585-.137 1.318 1.318 0 0 1 1.3 1.516 4.093 4.093 0 0 1-2.2 3.233h-.007A17.668 17.668 0 0 1 12.1 9.267v.013l4.183.343a.454.454 0 0 1 .359.262l1.884 4.056.584.286a.448.448 0 0 1-.392.8l-.762-.353a.405.405 0 0 1-.222-.23l-1.779-3.941-3.824-.314v.967l3.2 1.9a.455.455 0 0 1 .2.31l.872 5.407.485.421a.46.46 0 0 1-.3.77h-.034a.447.447 0 0 1-.285-.101zm-7.086-4.93h1.689c.043-.239.088-.506.128-.786H9.057c.043.289.082.553.126.786zm-.26-1.679h2.162c0-.039.009-.078.013-.117.026-.222.052-.45.062-.675h-2.3c.015.271.04.538.063.791zm-.111-1.68h2.428v-.76H8.812zm-.019-1.712h2.4v-.545h-.075a1.078 1.078 0 0 1-.477-2.044l.349-.174c-.28-1.388-.773-1.388-.99-1.388s-.712 0-.989 1.389l.35.175a1.06 1.06 0 0 1 .582.954 1.079 1.079 0 0 1-.319.762 1.067 1.067 0 0 1-.752.308h-.079zm.341-4.736a1.612 1.612 0 0 1 1.775-.043.906.906 0 0 0-1.775.043zm1.658-1.514a1.809 1.809 0 0 1 .624.492.4.4 0 1 0-.624-.492zm-2.3.225a.41.41 0 0 0 .1.248 1.785 1.785 0 0 1 .613-.485.39.39 0 0 0-.313-.154.4.4 0 0 0-.403.391z"/>
</svg>
