<svg xmlns="http://www.w3.org/2000/svg" width="20" height="20" viewBox="0 0 20 20">
  <defs>
    <style>
      .cls-1 {
        fill: #111;
      }
    </style>
  </defs>
  <path id="file_2_" data-name="file (2)" class="cls-1" d="M19.219,0H6.927a.781.781,0,0,0-.781.781V6.444L.432,9.3A.782.782,0,0,0,0,10v9.219A.781.781,0,0,0,.781,20H19.219A.781.781,0,0,0,20,19.219V.781A.781.781,0,0,0,19.219,0ZM1.562,10.483,6.927,7.8l5.365,2.682v7.955H10.013V14.073a.781.781,0,0,0-.781-.781H4.622a.781.781,0,0,0-.781.781v4.365H1.562ZM5.4,18.438V14.854H8.45v3.583Zm13.034,0H13.854V15.391h2.292a.781.781,0,0,0,0-1.562H13.854V10.781h2.292a.781.781,0,0,0,0-1.562H13.257L7.708,6.444V1.563H18.438ZM9.219,5.391A.781.781,0,0,1,10,4.609h6.146a.781.781,0,0,1,0,1.563H10A.781.781,0,0,1,9.219,5.391Zm0,0"/>
</svg>
