<svg xmlns="http://www.w3.org/2000/svg" width="19.701" height="20.199" viewBox="0 0 19.701 20.199">
    <path data-name="Path 132596" d="M12.795 19.2c-.2 0-.383.891-.478.714l-.63-1.117a.561.561 0 0 1 .25-.691.546.546 0 0 1 .268-.068.563.563 0 0 1 .447.225l.015.022.617 1.095a.56.56 0 0 1-.214.753c-.082.041-.171-.937-.263-.937zm.006.9zm-2.59.1a.535.535 0 0 1-.477-.288l-.628-1.12a.559.559 0 0 1 .25-.687.546.546 0 0 1 .268-.068.559.559 0 0 1 .447.225l.018.027.615 1.09a.547.547 0 0 1 .051.424.564.564 0 0 1-.266.331.541.541 0 0 1-.26.066zm-2.589 0a.546.546 0 0 1-.482-.288l-.087-.171-.518-.913a.561.561 0 0 1 .211-.753.559.559 0 0 1 .424-.051.556.556 0 0 1 .332.265l.614 1.09a.56.56 0 0 1-.214.753h-.008a.564.564 0 0 1-.26.063zm2.579-2.334H.809a.809.809 0 0 1-.809-.81v-1.4a.808.808 0 0 1 .188-.521l5.674-9.782c.006-.038.011-.079.021-.117a.854.854 0 0 1-.022-.191V.828a.8.8 0 0 1 .237-.593.794.794 0 0 1 .595-.237h6.34a.809.809 0 0 1 .809.81v4.207a.942.942 0 0 1-.021.191c.008.038.013.076.018.117l5.675 9.784a.8.8 0 0 1 .188.516v1.438a.809.809 0 0 1-.809.807zM1.113 16.74H18.59v-.76H1.113zm.563-1.938h16.369l-5.2-8.958H6.867zm5.3-10.211h5.764V1.127H6.976z"/>
</svg>
