<svg xmlns="http://www.w3.org/2000/svg" width="20.199" height="17.239" viewBox="0 0 20.199 17.239">
    <path data-name="Path 132615" d="M1 17.239v-1.528a1.107 1.107 0 0 1 .322-.778l.609-.609A.225.225 0 0 0 2 14.158v-1.391a17.313 17.313 0 0 1 .748-4.63.567.567 0 0 0-.314-.674l-1.582-.7A1.434 1.434 0 0 1 0 5.456V2.103A1.438 1.438 0 0 1 1.434.669h2.252a.569.569 0 0 0 .4-.163l.079-.082a1.406 1.406 0 0 1 1-.421H8.15a1.438 1.438 0 0 1 .737.2l1.362.816a.873.873 0 0 1 .176-.021h1a1.11 1.11 0 0 1 .786.332h1.88a1.111 1.111 0 0 1 1.041.742l1.12.255a.826.826 0 0 1 .469.337h.7a.769.769 0 0 1 .763.666h1.571a.434.434 0 0 1 .431.434.431.431 0 0 1-.431.432H18.2a.769.769 0 0 1-.763.668h-.7a.786.786 0 0 1-.467.334l-1.123.261a1.107 1.107 0 0 1-1.041.737h-1.88a1.083 1.083 0 0 1-.786.334h-.99a1.1 1.1 0 0 1-1.013.666h-.852c-.528.475-.11 1.337-.092 1.375a.452.452 0 0 1 .046.194v.339a.764.764 0 0 1-.76.761.9.9 0 0 0-.865.653L5.888 14.1a.447.447 0 0 0 .072.388.447.447 0 0 0 .354.176h2.255a2.782 2.782 0 0 1 2.253 1.158l.334.516h.046v.9zm.939-1.7a.221.221 0 0 0-.071.168v.628h8.249l-.008-.016a1.932 1.932 0 0 0-1.543-.793H1.95zM.868 2.096v3.353a.56.56 0 0 0 .336.513l1.582.7a1.446 1.446 0 0 1 .793 1.715 16.289 16.289 0 0 0-.712 4.386v1.388a1.1 1.1 0 0 1-.125.508h2.334a1.3 1.3 0 0 1-.028-.8L6 10.529a3.2 3.2 0 0 1-.243-2.962 2.688 2.688 0 0 1 1.955-1.234h-.005a.247.247 0 0 1 .059-.006h1.666a.234.234 0 0 0 .235-.234V1.761a.791.791 0 0 1 .005-.084L8.45.942a.577.577 0 0 0-.293-.081H5.182a.56.56 0 0 0-.4.168l-.084.082a1.424 1.424 0 0 1-1 .418h-2.26a.568.568 0 0 0-.57.572zm5.651 5.892a1.911 1.911 0 0 0 0 1.53A1.762 1.762 0 0 1 7.672 9v-.138a2.337 2.337 0 0 1-.13-1.607 1.671 1.671 0 0 0-1.023.736zm4.013-2.327h.9a.233.233 0 0 0 .232-.232V2.097a.239.239 0 0 0-.232-.234h-.9v.467h.235a.435.435 0 0 1 .434.434.433.433 0 0 1-.434.434h-.235v1.133h.235a.434.434 0 0 1 .434.434.431.431 0 0 1-.434.432h-.235zm2-.332h1.566a.233.233 0 0 0 .232-.234V2.429a.237.237 0 0 0-.232-.232h-1.566v.467h.9a.434.434 0 0 1 .434.434.431.431 0 0 1-.434.432h-.9zm2.666-.775.8-.184V3.155l-.8-.184zm1.666-.559h.467v-.467h-.467zM2.814 5.651l-1-.4a.768.768 0 0 1-.482-.714V2.764a.768.768 0 0 1 .765-.766h1a.766.766 0 0 1 .765.766v2.174a.764.764 0 0 1-.765.766.783.783 0 0 1-.28-.05zm-.618-1.182.8.321V2.861h-.8zm2.9 1.059a.433.433 0 0 1-.434-.434.433.433 0 0 1 .434-.432H8.43a.433.433 0 0 1 .431.432.432.432 0 0 1-.431.434zm0-1.334a.431.431 0 0 1-.434-.432.435.435 0 0 1 .434-.434H8.43a.434.434 0 0 1 .431.434.431.431 0 0 1-.431.432zm0-1.332a.434.434 0 0 1-.434-.434.433.433 0 0 1 .434-.432H8.43a.433.433 0 0 1 .431.432.433.433 0 0 1-.431.434z"/>
</svg>
