<svg xmlns="http://www.w3.org/2000/svg" width="20" height="16.34" viewBox="0 0 20 16.34">
    <path data-name="Path 132600" d="M19.414 7.584h-.788a5.236 5.236 0 0 0-8.383-6.051L10 1.776l-.243-.243a5.237 5.237 0 0 0-8.383 6.051H.586a.586.586 0 0 0 0 1.172h1.6q.084.092.172.18l7.232 7.232a.586.586 0 0 0 .829 0l7.232-7.232q.088-.088.172-.18h1.6a.586.586 0 0 0 0-1.172zM1.992 5.235a4.063 4.063 0 0 1 6.936-2.873l.657.657a.586.586 0 0 0 .829 0l.657-.657a4.064 4.064 0 0 1 6.189 5.222h-3.07l-1.312-2.071a.586.586 0 0 0-1 .022L9.953 8.889l-2.478-4.89a.586.586 0 0 0-1.063.038l-1.49 3.547H2.739a4.033 4.033 0 0 1-.747-2.349zM10 14.926l-6.17-6.17h1.483a.586.586 0 0 0 .54-.359L7 5.656l2.4 4.73a.586.586 0 0 0 .508.321h.015a.586.586 0 0 0 .508-.295l1.978-3.453.964 1.522a.586.586 0 0 0 .495.272h2.3z"/>
</svg>
