<svg xmlns="http://www.w3.org/2000/svg" width="19.886" height="17.764" viewBox="0 0 19.886 17.764">
  <defs>
    <style>
      .cls-1 {
        fill: #101110;
      }
    </style>
  </defs>
  <g id="homepage" transform="translate(-1.61 -3.387)">
    <path id="Path_97636" data-name="Path 97636" class="cls-1" d="M16.123,34.149A4.962,4.962,0,0,0,9.947,26.4a4.964,4.964,0,0,0-6.182,7.747A7.053,7.053,0,0,0,0,40.417v2.131a.71.71,0,0,0,.71.71H19.176a.71.71,0,0,0,.71-.71V40.417A7.053,7.053,0,0,0,16.123,34.149Zm-3.338-7.226a3.546,3.546,0,0,1,1.459,6.78c-.055.025-.109.048-.165.071a3.481,3.481,0,0,1-.54.168c-.035.008-.071.012-.107.019a3.554,3.554,0,0,1-.625.063c-.094,0-.19-.007-.284-.016A.537.537,0,0,1,12.416,34a3.588,3.588,0,0,1-1.161-.342c-.013-.006-.029-.006-.043-.011-.071-.034-.142-.064-.205-.1.006-.007.009-.015.015-.022a4.982,4.982,0,0,0,.761-1.386l.022-.06a5.01,5.01,0,0,0,.188-.731c.006-.036.011-.071.017-.11a4.534,4.534,0,0,0,0-1.526c-.006-.037-.011-.071-.017-.11a5.011,5.011,0,0,0-.188-.731l-.022-.06a4.983,4.983,0,0,0-.761-1.386c-.006-.007-.009-.015-.015-.022A3.528,3.528,0,0,1,12.784,26.923ZM3.552,30.474a3.542,3.542,0,0,1,5.994-2.565c.041.04.082.08.121.121a3.652,3.652,0,0,1,.337.408c.031.044.06.091.089.136a3.493,3.493,0,0,1,.261.479c.018.04.031.082.047.122a3.472,3.472,0,0,1,.176.568c0,.021.006.043.011.065a3.343,3.343,0,0,1,0,1.337c0,.022-.006.043-.011.065a3.463,3.463,0,0,1-.176.568c-.016.04-.029.082-.047.122a3.506,3.506,0,0,1-.261.479c-.029.045-.058.092-.089.136a3.643,3.643,0,0,1-.337.408c-.04.041-.08.081-.121.121a3.545,3.545,0,0,1-.981.662c-.058.026-.116.05-.175.071a3.573,3.573,0,0,1-.527.163c-.045.01-.091.016-.136.023a3.525,3.525,0,0,1-.585.059H7.064a3.52,3.52,0,0,1-.585-.059c-.045-.008-.092-.013-.136-.023a3.571,3.571,0,0,1-.527-.163l-.175-.071A3.551,3.551,0,0,1,3.552,30.474Zm9.233,11.363H1.421v-1.42A5.646,5.646,0,0,1,5.2,35.065a4.956,4.956,0,0,0,3.81,0,5.705,5.705,0,0,1,.692.306c.148.076.284.163.426.25.092.058.186.114.275.177.137.1.266.2.393.312.082.071.163.142.239.213.117.111.227.228.333.348.076.087.15.175.22.266.093.119.182.241.264.367.071.107.134.217.2.328s.136.244.2.371.112.266.163.4c.045.118.092.235.129.355.05.165.085.335.119.506.021.1.049.2.065.3a5.874,5.874,0,0,1,.065.849v1.42Zm5.682,0H14.2v-1.42c0-.222-.013-.442-.033-.66-.006-.064-.016-.127-.023-.191-.019-.157-.041-.312-.071-.467q-.019-.1-.04-.2-.051-.237-.119-.47c-.015-.051-.028-.1-.044-.153a7.037,7.037,0,0,0-.856-1.795l-.028-.04q-.183-.272-.391-.526l0-.006a6.446,6.446,0,0,0-.458-.509h.029a5.027,5.027,0,0,0,.6.043h.039a5.024,5.024,0,0,0,.56-.036c.058-.007.116-.018.174-.027q.227-.035.447-.09c.042-.011.085-.021.127-.033a4.837,4.837,0,0,0,.568-.193,5.646,5.646,0,0,1,3.78,5.354v1.42Z" transform="translate(1.609 -22.107)"/>
  </g>
</svg>
