<svg xmlns="http://www.w3.org/2000/svg" width="20.199" height="9.139" viewBox="0 0 20.199 9.139">
    <path data-name="Path 132591" d="M2.074 9.139H1.977a.81.81 0 0 1-.141-.013.189.189 0 0 1-.043 0l-.107-.015-.087-.016a2.087 2.087 0 0 1-1.6-2.026V2.097A2.093 2.093 0 0 1 2.073.012h16.04a2.094 2.094 0 0 1 2.085 2.085v4.972a2.07 2.07 0 0 1-.609 1.473 2.072 2.072 0 0 1-1.256.6h-.008a1.775 1.775 0 0 1-.2.013zm12.015-.959h3.528v-.748a.748.748 0 0 0-.709-.739h-2.819zm-1.935 0h1.131V6.693h-3.033v1.484H11.3zm-3.2 0h.5V6.693H6.421V8.18H8.105zm-4.807 0h1.471V6.696h-2.4a.743.743 0 0 0-.681.546v.717h-.011v.222h.738zM.958 2.111v4.978a1.1 1.1 0 0 0 .648 1.008v-.661a1.7 1.7 0 0 1 1.682-1.693h13.593a.237.237 0 0 1 .044 0 1.68 1.68 0 0 1 1.184.484 1.723 1.723 0 0 1 .511 1.212v.646a1.105 1.105 0 0 0 .622-1V2.102A1.135 1.135 0 0 0 18.188.975a1.669 1.669 0 0 1-.479 1.074 1.7 1.7 0 0 1-1.177.489H3.669a1.671 1.671 0 0 1-1.166-.475 1.722 1.722 0 0 1-.5-1.076 1.142 1.142 0 0 0-1.049 1.12zm2.192-.747a.688.688 0 0 0 .5.206h12.884a.723.723 0 0 0 .707-.607H2.951a.68.68 0 0 0 .195.397zm13.945 3.411h-2.796a.993.993 0 0 1-.7-.31.989.989 0 0 1-.275-.719.991.991 0 0 1 .975-.97h2.771a.99.99 0 0 1 .7.286.992.992 0 0 1 .291.737 1.006 1.006 0 0 1-.973.975zm-.9-.957H17.153a.042.042 0 0 0 .038-.021.051.051 0 0 0 0-.048.065.065 0 0 0-.041-.016H16.19zm-1.9-.049v.008a.041.041 0 0 0 .043.041h.905v-.074h-.905a.05.05 0 0 0-.05.022z"/>
</svg>
