<svg xmlns="http://www.w3.org/2000/svg" width="16.876" height="20" viewBox="0 0 16.876 20">
    <path data-name="Path 132577" d="M2.872 20h-.12l-.024-.008a.431.431 0 0 1-.262-.562l1.024-2.823a2.873 2.873 0 0 0 .179-1.007v-2.19a1.056 1.056 0 0 1 1.055-1.055h.516v-.788a12.187 12.187 0 0 1 .07-1.589l-.434-.434a.164.164 0 0 0-.236 0l-1.452 1.443a1.355 1.355 0 0 1-.961.4H.425A.443.443 0 0 1 0 10.928a.437.437 0 0 1 .427-.418H2.2a.507.507 0 0 0 .343-.139l1.449-1.448a1.049 1.049 0 0 1 1.445-.041 11.67 11.67 0 0 1 .412-1.69l-2.9-2.033a.44.44 0 0 1 .5-.722l2.726 1.907a5.671 5.671 0 0 1 .359-.669 1.906 1.906 0 0 1-.088-.587 1.969 1.969 0 0 1 .2-.854A11.3 11.3 0 0 0 .7.911H.69A.457.457 0 0 1 .772 0h.01a8.163 8.163 0 0 1 2.082.621 14.455 14.455 0 0 1 4.354 2.963 1.971 1.971 0 0 1 2.473 0 14.447 14.447 0 0 1 4.324-2.9 8.126 8.126 0 0 1 2.08-.614h.055a.457.457 0 0 1 .053.91 7.318 7.318 0 0 0-1.863.552A13.651 13.651 0 0 0 10.219 4.3a2.039 2.039 0 0 1 .175.8 1.913 1.913 0 0 1-.082.588 6.259 6.259 0 0 1 .354.669l2.729-1.907a.432.432 0 0 1 .251-.079.415.415 0 0 1 .078.007.442.442 0 0 1 .181.791L11 7.2a11.74 11.74 0 0 1 .411 1.69 1.057 1.057 0 0 1 .7-.268 1.036 1.036 0 0 1 .309.046h.052l.129.061a1.3 1.3 0 0 1 .254.178l.005.005 1.449 1.443a.457.457 0 0 0 .326.138h1.783a.443.443 0 0 1 .037.885h-1.829a1.356 1.356 0 0 1-.963-.4l-1.424-1.441a.17.17 0 0 0-.24 0l-.439.439c0 .07.012.141.021.216s.015.122.019.184v.011c0 .185.01.371.021.566s.022.4.022.61v.788h.509a1.056 1.056 0 0 1 1.055 1.055v2.171a2.876 2.876 0 0 0 .178 1.009l1.025 2.82a.445.445 0 0 1-.258.563h-.028a.424.424 0 0 1-.126 0h-.039a.437.437 0 0 1-.4-.265v-.008l-1.031-2.826a3.8 3.8 0 0 1-.228-1.308v-2.17a.176.176 0 0 0-.176-.176h-.564a12.352 12.352 0 0 1-.762 3.28c-.6 1.453-1.436 2.253-2.366 2.253s-1.769-.8-2.366-2.253a12.078 12.078 0 0 1-.762-3.28h-.568a.176.176 0 0 0-.176.176v2.171a3.807 3.807 0 0 1-.24 1.308l-1.03 2.841a.43.43 0 0 1-.406.288zm3.222-8.435a12.488 12.488 0 0 0 .784 4.617c.44 1.078 1.019 1.722 1.55 1.722s1.1-.628 1.544-1.722a12.474 12.474 0 0 0 .778-4.617 14.536 14.536 0 0 0-.2-2.5l-.129.065h-.036a5.134 5.134 0 0 1-1.258.344h-.049c-.073 0-.144 0-.212.007v7.636a.443.443 0 1 1-.879 0v-7.6A4.9 4.9 0 0 1 6.3 9.068a15.613 15.613 0 0 0-.206 2.497zm.863-4.818-.08.194a8.222 8.222 0 0 0-.4 1.235 4.1 4.1 0 0 0 1.93.484h.018a4.529 4.529 0 0 0 .558-.035 4.068 4.068 0 0 0 1.385-.44 9.1 9.1 0 0 0-.4-1.238c-.44-1.08-1.018-1.725-1.546-1.725-.5 0-1.029.552-1.464 1.525zm2.531-2.071a1.1 1.1 0 0 0-2.125 0 1.778 1.778 0 0 1 2.125 0z"/>
</svg>
