<svg xmlns="http://www.w3.org/2000/svg" width="20" height="16.918" viewBox="0 0 20 16.918">
    <path data-name="Path 132590" d="M17.14 16.918a2.879 2.879 0 0 1-2.468-1.418l-1.212-2.118h-1.688V15.3h1.365a.541.541 0 0 1 0 1.083H6.851a.541.541 0 0 1 0-1.083h1.357v-1.918H2.082A2.1 2.1 0 0 1 0 11.3V2.08A2.09 2.09 0 0 1 2.082 0h15.836A2.094 2.094 0 0 1 20 2.08v9.22a2.089 2.089 0 0 1-.434 1.272l.183.317h-.028a2.848 2.848 0 0 1-2.581 4.035zm-4.149-6.529 2.632 4.552a1.754 1.754 0 1 0 3.052-1.729L16.05 8.624zM9.307 15.3h1.385v-1.918H9.307zM1.088 2.08v9.22a.989.989 0 0 0 .288.706 1 1 0 0 0 .705.294l10.758.023-.118-.2-.8-1.437h.019a.9.9 0 0 1 .371-1.122l3.4-1.959a.892.892 0 0 1 1.214.324l.334.577 1.041 1.852v.019l.6 1.04a.985.985 0 0 0 .007-.117V2.08a1 1 0 0 0-.994-1H2.082a1 1 0 0 0-.994 1zM16.08 8.516zm1.072 6.784a1.361 1.361 0 0 1-.321-.04 1.235 1.235 0 0 1-.3-2.256 1.193 1.193 0 0 1 .934-.127 1.228 1.228 0 0 1 .3 2.255 1.2 1.2 0 0 1-.613.168zM17 13.8a.313.313 0 0 0-.109.421.288.288 0 0 0 .183.139h.007a.254.254 0 0 0 .221-.029h.007a.279.279 0 0 0 .14-.173v-.022a.3.3 0 0 0-.03-.23.344.344 0 0 0-.177-.143h-.088A.356.356 0 0 0 17 13.8zm-2.627-2.54a.462.462 0 0 1-.32-.128.5.5 0 0 1-.134-.328.463.463 0 0 1 .462-.464.5.5 0 0 1 .328.134.458.458 0 0 1 .129.323.445.445 0 0 1-.13.334.439.439 0 0 1-.312.13zm1.007-.9a.464.464 0 1 1 .348.159.457.457 0 0 1-.349-.163zm-3.134-2.041h-.01a.461.461 0 0 1-.326-.568 1.961 1.961 0 0 1 2.285-1.4v-.017l.1.027a.463.463 0 1 1-.243.893 1.022 1.022 0 0 0-1.248.724.463.463 0 0 1-.446.341zm-1.6-.459h-.121a.462.462 0 0 1-.326-.583 3.719 3.719 0 0 1 4.557-2.63.456.456 0 0 1 .326.569.462.462 0 0 1-.568.324 2.8 2.8 0 0 0-3.423 1.975.47.47 0 0 1-.446.347z"/>
</svg>
