<svg xmlns="http://www.w3.org/2000/svg" width="18.13" height="20" viewBox="0 0 18.13 20">
    <path data-name="Path 132578" d="M5.628 18.182a9.336 9.336 0 0 1-2-5v-.013l-.12-.028-.34 3.551a.461.461 0 0 1-.137.285l-.6.562a.447.447 0 0 1-.634 0l-.009-.01a.451.451 0 0 1 .047-.629l.472-.442.352-3.913v-.555a.742.742 0 0 1 .439-.676l.818-.371a6.34 6.34 0 0 1 .171-.538l-.49-.589-.934.584-1.127 4.021a.485.485 0 0 1-.143.219l-.007.006-.686.532H.654a.446.446 0 0 1-.579-.155.441.441 0 0 1 .125-.613l.5-.4 1.118-4.05a.434.434 0 0 1 .2-.26l1.405-.879.1-.228a.7.7 0 0 1 .65-.435.683.683 0 0 1 .177.023h.006l.684.206-.43-.787a.669.669 0 0 1 .049-.706L4.8 6.7 3.787 4.222l-.922-.544a.449.449 0 0 1 .483-.756L4.4 3.56a.463.463 0 0 1 .183.2l1.069 2.518a.767.767 0 0 1 .089.009h.014l.555.194a2.244 2.244 0 0 1 1.277-.636v-.2l-.032-.013a.449.449 0 0 1 .167-.861L5.6 2.991a.409.409 0 0 1-.152-.233l-.333-1.227-.847-.725A.448.448 0 0 1 4.8.085L5.839.85a.408.408 0 0 1 .173.253l.337 1.224L8.48 4.092a1.439 1.439 0 0 1 1.3 0L11.9 2.34l.337-1.225A.427.427 0 0 1 12.4.866l1.054-.772A.448.448 0 0 1 13.7.019a.449.449 0 0 1 .444.532.451.451 0 0 1-.187.286l-.917.674-.332 1.231a.491.491 0 0 1-.143.219l-2.134 1.767a.447.447 0 0 1 .388.264.455.455 0 0 1-.237.592l-.032.013v.193a2.22 2.22 0 0 1 1.306.641l.566-.174a.638.638 0 0 1 .094-.009l1.014-2.489a.47.47 0 0 1 .185-.2l1.055-.643a.448.448 0 0 1 .421.792l-.915.539-1.012 2.481.139.19a.659.659 0 0 1 .043.709l-.429.8.729-.217a.709.709 0 0 1 .177-.022.7.7 0 0 1 .65.436l.095.227 1.412.883a.493.493 0 0 1 .189.246v.01l1.124 4.046.478.388.04.012.079.056.01.01a.449.449 0 0 1-.629.641l-.639-.493a.485.485 0 0 1-.143-.219v-.005l-1.114-4.023-.937-.585-.486.554a5.868 5.868 0 0 1 .188.588l.788.35a.8.8 0 0 1 .431.662v.565l.346 3.945.48.45a.443.443 0 0 1-.317.751.442.442 0 0 1-.313-.13l-.6-.557a.4.4 0 0 1-.143-.3l-.321-3.561-.075.018v.021a9.481 9.481 0 0 1-2 5 4.172 4.172 0 0 1-6.889 0zm.743-.5a3.265 3.265 0 0 0 5.4 0l.047-.07h.013l.139-.207a19.242 19.242 0 0 1-2.851.213h-.011a19.539 19.539 0 0 1-2.93-.225c.06.092.122.19.193.288zm-.808-1.324a18.554 18.554 0 0 0 3.507.335 18.561 18.561 0 0 0 3.508-.335c.17-.3.327-.6.469-.914-.43.087-.887.165-1.361.231a.421.421 0 0 1-.058 0 .456.456 0 0 1-.449-.388.447.447 0 0 1 .388-.507 18.111 18.111 0 0 0 1.856-.347 4.914 4.914 0 0 0 .179-.9 19.329 19.329 0 0 1-4.483.527h-.011a19.65 19.65 0 0 1-4.565-.54 4.816 4.816 0 0 0 .174.879 18.427 18.427 0 0 0 4.383.529c.421 0 .848-.015 1.268-.044h.024a.448.448 0 0 1 .01.895 12.219 12.219 0 0 1-1.287.045 19.649 19.649 0 0 1-4.022-.417c.139.328.298.644.47.951zm-1.021-3.724a18.752 18.752 0 0 0 4.532.557 18.752 18.752 0 0 0 4.532-.557 7.344 7.344 0 0 0-.1-.816 20.116 20.116 0 0 1-4.391.5 20.031 20.031 0 0 1-4.46-.521 7.239 7.239 0 0 0-.113.837zm.321-1.7a18.661 18.661 0 0 0 4.21.481 18.661 18.661 0 0 0 4.21-.481 6.549 6.549 0 0 0-.3-.781 19.552 19.552 0 0 1-3.881.393 18.689 18.689 0 0 1-1.99-.064.45.45 0 0 1 .043-.9H7.2c.6.058 1.2.087 1.8.087a18.59 18.59 0 0 0 3.507-.334 5.254 5.254 0 0 0-.629-.79c-.432.076-.881.136-1.335.179h-.041a.448.448 0 0 1-.039-.895c.355-.03.708-.075 1.1-.137a1.378 1.378 0 0 0-1.321-.988H9.67a.46.46 0 0 1-.4-.489v.001a.447.447 0 0 1 .37-.393v-.35a.563.563 0 1 0-1.125 0v.345h.292a.449.449 0 0 1 0 .892h-.861a1.378 1.378 0 0 0-1.321.99 16.455 16.455 0 0 0 2.592.206h.061a.438.438 0 0 1 .411.4.452.452 0 0 1-.394.492h-.22a16.641 16.641 0 0 1-2.852-.256 5.458 5.458 0 0 0-.624.779L6 9.4a.455.455 0 0 1 .367.5.45.45 0 0 1-.179.3.443.443 0 0 1-.264.086.394.394 0 0 1-.074-.006 17.015 17.015 0 0 1-.683-.128 6.34 6.34 0 0 0-.304.782zM4.27 9.2l.235.271.021-.039c.035-.069.071-.136.107-.2l-.336-.1zm9.257.037c.041.073.08.148.118.221v.007l.218-.231-.036-.089zM5.52 7.351l.194.359a2.31 2.31 0 0 1 .118-.438l-.208-.066zm6.808-.11a2.359 2.359 0 0 1 .12.367l.145-.269-.1-.146z"/>
</svg>
